<?xml version="1.0" standalone="no"?><svg xmlns="http://www.w3.org/2000/svg" viewBox="0 0 1440 320"><path fill="#0099ff" fill-opacity="1" d="M0,224L40,224C80,224,160,224,240,208C320,192,400,160,480,144C560,128,640,128,720,144C800,160,880,192,960,202.7C1040,213,1120,203,1200,186.7C1280,171,1360,149,1400,138.7L1440,128L1440,320L1400,320C1360,320,1280,320,1200,320C1120,320,1040,320,960,320C880,320,800,320,720,320C640,320,560,320,480,320C400,320,320,320,240,320C160,320,80,320,40,320L0,320Z"></path></svg>